# 3ds Max Wavefront OBJ Exporter v0.97b - (c)2007 guruware
# File Created: 22.04.2015 15:12:30

#
# object pCube1
#

v  -130.5673 -6.6085 1086.9355
v  128.3951 -6.6085 1086.9355
v  128.3951 6.6084 1086.9355
v  -130.5673 6.6084 1086.9355
v  128.3951 6.6085 -1086.9355
v  -130.5673 6.6085 -1086.9355
v  128.3951 -6.6084 -1086.9355
v  -130.5673 -6.6084 -1086.9355
# 8 vertices

vn 0.0000 -0.0000 1.0000
vn 0.0000 1.0000 0.0000
vn 0.0000 0.0000 -1.0000
vn 0.0000 -1.0000 -0.0000
vn 1.0000 0.0000 -0.0000
vn -1.0000 0.0000 -0.0000
# 6 vertex normals

g pCube1
s off
f 1//1 2//1 3//1 4//1 
f 4//2 3//2 5//2 6//2 
f 6//3 5//3 7//3 8//3 
f 8//4 7//4 2//4 1//4 
f 2//5 7//5 5//5 3//5 
f 8//6 1//6 4//6 6//6 
# 6 polygons

#
# object pCube2
#

v  -125.4895 4.1179 4.1511
v  -74.7304 4.1179 4.1511
v  -74.7304 66.0463 4.1511
v  -125.4895 66.0463 4.1511
v  -74.7304 66.0463 -4.1511
v  -125.4895 66.0463 -4.1511
v  -74.7304 4.1179 -4.1511
v  -125.4895 4.1179 -4.1511
# 8 vertices

vn 0.0000 -0.0000 1.0000
vn 0.0000 1.0000 0.0000
vn 0.0000 0.0000 -1.0000
vn 0.0000 -1.0000 -0.0000
vn 1.0000 0.0000 -0.0000
vn -1.0000 0.0000 -0.0000
# 6 vertex normals

g pCube2
s off
f 9//7 10//7 11//7 12//7 
f 12//8 11//8 13//8 14//8 
f 14//9 13//9 15//9 16//9 
f 16//10 15//10 10//10 9//10 
f 10//11 15//11 13//11 11//11 
f 16//12 9//12 12//12 14//12 
# 6 polygons

#
# object pasted__pCube2
#

v  9.8568 4.1179 4.1511
v  60.6158 4.1179 4.1511
v  60.6158 66.0463 4.1511
v  9.8568 66.0463 4.1511
v  60.6158 66.0463 -4.1511
v  9.8568 66.0463 -4.1511
v  60.6158 4.1179 -4.1511
v  9.8568 4.1179 -4.1511
# 8 vertices

vn 0.0000 -0.0000 1.0000
vn 0.0000 1.0000 0.0000
vn 0.0000 0.0000 -1.0000
vn 0.0000 -1.0000 -0.0000
vn 1.0000 0.0000 -0.0000
vn -1.0000 0.0000 -0.0000
# 6 vertex normals

g pasted__pCube2
s off
f 17//13 18//13 19//13 20//13 
f 20//14 19//14 21//14 22//14 
f 22//15 21//15 23//15 24//15 
f 24//16 23//16 18//16 17//16 
f 18//17 23//17 21//17 19//17 
f 24//18 17//18 20//18 22//18 
# 6 polygons

#
# object pasted__pCube2
#

v  85.6907 4.1179 4.1511
v  98.4263 4.1179 4.1511
v  98.4263 66.0463 4.1511
v  85.6907 66.0463 4.1511
v  98.4263 66.0463 -4.1511
v  85.6907 66.0463 -4.1511
v  98.4263 4.1179 -4.1511
v  85.6907 4.1179 -4.1511
# 8 vertices

vn 0.0000 -0.0000 1.0000
vn 0.0000 1.0000 0.0000
vn 0.0000 0.0000 -1.0000
vn 0.0000 -1.0000 -0.0000
vn 1.0000 0.0000 -0.0000
vn -1.0000 0.0000 -0.0000
# 6 vertex normals

g pasted__pCube2
s off
f 25//19 26//19 27//19 28//19 
f 28//20 27//20 29//20 30//20 
f 30//21 29//21 31//21 32//21 
f 32//22 31//22 26//22 25//22 
f 26//23 31//23 29//23 27//23 
f 32//24 25//24 28//24 30//24 
# 6 polygons

#
# object pasted__pasted__pCube2
#

v  122.5890 4.1179 985.6703
v  122.5890 4.1179 -1092.9532
v  122.5890 66.0463 -1092.9532
v  122.5890 66.0463 985.6703
v  114.2867 66.0463 -1092.9532
v  114.2868 66.0463 985.6703
v  114.2867 4.1179 -1092.9532
v  114.2868 4.1179 985.6703
# 8 vertices

vn 1.0000 -0.0000 -0.0000
vn 0.0000 1.0000 -0.0000
vn -1.0000 0.0000 0.0000
vn -0.0000 -1.0000 0.0000
vn -0.0000 -0.0000 -1.0000
vn 0.0000 0.0000 1.0000
# 6 vertex normals

g pasted__pasted__pCube2
s off
f 33//25 34//25 35//25 36//25 
f 36//26 35//26 37//26 38//26 
f 38//27 37//27 39//27 40//27 
f 40//28 39//28 34//28 33//28 
f 34//29 39//29 37//29 35//29 
f 40//30 33//30 36//30 38//30 
# 6 polygons

#
# object pasted__pasted__pasted__pCube2
#

v  -122.9813 4.1179 985.6703
v  -122.9814 4.1180 -1092.9532
v  -122.9814 66.0464 -1092.9532
v  -122.9813 66.0463 985.6703
v  -131.2836 66.0464 -1092.9532
v  -131.2835 66.0463 985.6703
v  -131.2836 4.1180 -1092.9532
v  -131.2835 4.1179 985.6703
# 8 vertices

vn 1.0000 0.0000 -0.0000
vn 0.0000 1.0000 0.0000
vn -1.0000 -0.0000 0.0000
vn 0.0000 -1.0000 -0.0000
vn -0.0000 0.0000 -1.0000
vn 0.0000 -0.0000 1.0000
# 6 vertex normals

g pasted__pasted__pasted__pCube2
s off
f 41//31 42//31 43//31 44//31 
f 44//32 43//32 45//32 46//32 
f 46//33 45//33 47//33 48//33 
f 48//34 47//34 42//34 41//34 
f 42//35 47//35 45//35 43//35 
f 48//36 41//36 44//36 46//36 
# 6 polygons

#
# object pasted__pCube2
#

v  38.0625 4.1179 -88.7304
v  50.1257 4.1179 -88.7304
v  50.1257 66.0463 -88.7304
v  38.0625 66.0463 -88.7304
v  50.1257 66.0463 -97.0326
v  38.0625 66.0463 -97.0326
v  50.1257 4.1179 -97.0326
v  38.0625 4.1179 -97.0326
# 8 vertices

vn 0.0000 -0.0000 1.0000
vn 0.0000 1.0000 0.0000
vn 0.0000 0.0000 -1.0000
vn 0.0000 -1.0000 -0.0000
vn 1.0000 0.0000 -0.0000
vn -1.0000 0.0000 -0.0000
# 6 vertex normals

g pasted__pCube2
s off
f 49//37 50//37 51//37 52//37 
f 52//38 51//38 53//38 54//38 
f 54//39 53//39 55//39 56//39 
f 56//40 55//40 50//40 49//40 
f 50//41 55//41 53//41 51//41 
f 56//42 49//42 52//42 54//42 
# 6 polygons

#
# object pasted__pasted__pCube2
#

v  79.4529 4.1179 -88.7304
v  120.3169 4.1179 -88.7304
v  120.3169 66.0463 -88.7304
v  79.4529 66.0463 -88.7304
v  120.3169 66.0463 -97.0326
v  79.4529 66.0463 -97.0326
v  120.3169 4.1179 -97.0326
v  79.4529 4.1179 -97.0326
# 8 vertices

vn 0.0000 -0.0000 1.0000
vn 0.0000 1.0000 0.0000
vn 0.0000 0.0000 -1.0000
vn 0.0000 -1.0000 -0.0000
vn 1.0000 0.0000 -0.0000
vn -1.0000 0.0000 -0.0000
# 6 vertex normals

g pasted__pasted__pCube2
s off
f 57//43 58//43 59//43 60//43 
f 60//44 59//44 61//44 62//44 
f 62//45 61//45 63//45 64//45 
f 64//46 63//46 58//46 57//46 
f 58//47 63//47 61//47 59//47 
f 64//48 57//48 60//48 62//48 
# 6 polygons

#
# object pasted__pasted__pasted__pCube2
#

v  -128.4281 4.1179 -168.6044
v  -94.3909 4.1179 -168.6044
v  -94.3909 66.0463 -168.6044
v  -128.4281 66.0463 -168.6044
v  -94.3909 66.0463 -176.9066
v  -128.4281 66.0463 -176.9066
v  -94.3909 4.1179 -176.9066
v  -128.4281 4.1179 -176.9066
# 8 vertices

vn 0.0000 -0.0000 1.0000
vn 0.0000 1.0000 0.0000
vn 0.0000 0.0000 -1.0000
vn 0.0000 -1.0000 -0.0000
vn 1.0000 0.0000 -0.0000
vn -1.0000 0.0000 -0.0000
# 6 vertex normals

g pasted__pasted__pasted__pCube2
s off
f 65//49 66//49 67//49 68//49 
f 68//50 67//50 69//50 70//50 
f 70//51 69//51 71//51 72//51 
f 72//52 71//52 66//52 65//52 
f 66//53 71//53 69//53 67//53 
f 72//54 65//54 68//54 70//54 
# 6 polygons

#
# object pasted__pasted__pasted__pasted__pCube2
#

v  60.2408 4.1179 -168.6044
v  121.0644 4.1179 -168.6044
v  121.0644 66.0463 -168.6044
v  60.2408 66.0463 -168.6044
v  121.0644 66.0463 -176.9066
v  60.2408 66.0463 -176.9066
v  121.0644 4.1179 -176.9066
v  60.2408 4.1179 -176.9066
# 8 vertices

vn 0.0000 -0.0000 1.0000
vn 0.0000 1.0000 0.0000
vn 0.0000 0.0000 -1.0000
vn 0.0000 -1.0000 -0.0000
vn 1.0000 0.0000 -0.0000
vn -1.0000 0.0000 -0.0000
# 6 vertex normals

g pasted__pasted__pasted__pasted__pCube2
s off
f 73//55 74//55 75//55 76//55 
f 76//56 75//56 77//56 78//56 
f 78//57 77//57 79//57 80//57 
f 80//58 79//58 74//58 73//58 
f 74//59 79//59 77//59 75//59 
f 80//60 73//60 76//60 78//60 
# 6 polygons

#
# object pasted__pasted__pasted__pasted__pasted__pCube2
#

v  -39.1283 4.1179 -254.2717
v  38.2396 4.1179 -254.2717
v  38.2396 66.0463 -254.2717
v  -39.1283 66.0463 -254.2717
v  38.2396 66.0463 -262.5739
v  -39.1283 66.0463 -262.5739
v  38.2396 4.1179 -262.5739
v  -39.1283 4.1179 -262.5739
# 8 vertices

vn 0.0000 -0.0000 1.0000
vn 0.0000 1.0000 0.0000
vn 0.0000 0.0000 -1.0000
vn 0.0000 -1.0000 -0.0000
vn 1.0000 0.0000 -0.0000
vn -1.0000 0.0000 -0.0000
# 6 vertex normals

g pasted__pasted__pasted__pasted__pasted__pCube2
s off
f 81//61 82//61 83//61 84//61 
f 84//62 83//62 85//62 86//62 
f 86//63 85//63 87//63 88//63 
f 88//64 87//64 82//64 81//64 
f 82//65 87//65 85//65 83//65 
f 88//66 81//66 84//66 86//66 
# 6 polygons

#
# object pasted__pasted__pCube2
#

v  -20.0716 4.1179 4.1511
v  -7.3359 4.1179 4.1511
v  -7.3359 66.0463 4.1511
v  -20.0716 66.0463 4.1511
v  -7.3359 66.0463 -4.1511
v  -20.0716 66.0463 -4.1511
v  -7.3359 4.1179 -4.1511
v  -20.0716 4.1179 -4.1511
# 8 vertices

vn 0.0000 -0.0000 1.0000
vn 0.0000 1.0000 0.0000
vn 0.0000 0.0000 -1.0000
vn 0.0000 -1.0000 -0.0000
vn 1.0000 0.0000 -0.0000
vn -1.0000 0.0000 -0.0000
# 6 vertex normals

g pasted__pasted__pCube2
s off
f 89//67 90//67 91//67 92//67 
f 92//68 91//68 93//68 94//68 
f 94//69 93//69 95//69 96//69 
f 96//70 95//70 90//70 89//70 
f 90//71 95//71 93//71 91//71 
f 96//72 89//72 92//72 94//72 
# 6 polygons

#
# object pasted__pasted__pasted__pCube2
#

v  -56.0639 4.1179 4.1511
v  -43.3283 4.1179 4.1511
v  -43.3283 66.0463 4.1511
v  -56.0639 66.0463 4.1511
v  -43.3283 66.0463 -4.1511
v  -56.0639 66.0463 -4.1511
v  -43.3283 4.1179 -4.1511
v  -56.0639 4.1179 -4.1511
# 8 vertices

vn 0.0000 -0.0000 1.0000
vn 0.0000 1.0000 0.0000
vn 0.0000 0.0000 -1.0000
vn 0.0000 -1.0000 -0.0000
vn 1.0000 0.0000 -0.0000
vn -1.0000 0.0000 -0.0000
# 6 vertex normals

g pasted__pasted__pasted__pCube2
s off
f 97//73 98//73 99//73 100//73 
f 100//74 99//74 101//74 102//74 
f 102//75 101//75 103//75 104//75 
f 104//76 103//76 98//76 97//76 
f 98//77 103//77 101//77 99//77 
f 104//78 97//78 100//78 102//78 
# 6 polygons

#
# object pasted__pasted__pCube2
#

v  -71.3452 4.1179 -88.7304
v  -33.6883 4.1179 -88.7304
v  -33.6883 66.0463 -88.7304
v  -71.3452 66.0463 -88.7304
v  -33.6883 66.0463 -97.0326
v  -71.3452 66.0463 -97.0326
v  -33.6883 4.1179 -97.0326
v  -71.3452 4.1179 -97.0326
# 8 vertices

vn 0.0000 -0.0000 1.0000
vn 0.0000 1.0000 0.0000
vn 0.0000 0.0000 -1.0000
vn 0.0000 -1.0000 -0.0000
vn 1.0000 0.0000 -0.0000
vn -1.0000 0.0000 -0.0000
# 6 vertex normals

g pasted__pasted__pCube2
s off
f 105//79 106//79 107//79 108//79 
f 108//80 107//80 109//80 110//80 
f 110//81 109//81 111//81 112//81 
f 112//82 111//82 106//82 105//82 
f 106//83 111//83 109//83 107//83 
f 112//84 105//84 108//84 110//84 
# 6 polygons

#
# object pasted__pasted__pCube2
#

v  -100.0081 4.1179 -88.7304
v  -87.9449 4.1179 -88.7304
v  -87.9449 66.0463 -88.7304
v  -100.0081 66.0463 -88.7304
v  -87.9449 66.0463 -97.0326
v  -100.0081 66.0463 -97.0326
v  -87.9449 4.1179 -97.0326
v  -100.0081 4.1179 -97.0326
# 8 vertices

vn 0.0000 -0.0000 1.0000
vn 0.0000 1.0000 0.0000
vn 0.0000 0.0000 -1.0000
vn 0.0000 -1.0000 -0.0000
vn 1.0000 0.0000 -0.0000
vn -1.0000 0.0000 -0.0000
# 6 vertex normals

g pasted__pasted__pCube2
s off
f 113//85 114//85 115//85 116//85 
f 116//86 115//86 117//86 118//86 
f 118//87 117//87 119//87 120//87 
f 120//88 119//88 114//88 113//88 
f 114//89 119//89 117//89 115//89 
f 120//90 113//90 116//90 118//90 
# 6 polygons

#
# object pasted__pasted__pCube2
#

v  -13.0930 4.1179 -88.7304
v  -1.0298 4.1179 -88.7304
v  -1.0298 66.0463 -88.7304
v  -13.0930 66.0463 -88.7304
v  -1.0298 66.0463 -97.0326
v  -13.0930 66.0463 -97.0326
v  -1.0298 4.1179 -97.0326
v  -13.0930 4.1179 -97.0326
# 8 vertices

vn 0.0000 -0.0000 1.0000
vn 0.0000 1.0000 0.0000
vn 0.0000 0.0000 -1.0000
vn 0.0000 -1.0000 -0.0000
vn 1.0000 0.0000 -0.0000
vn -1.0000 0.0000 -0.0000
# 6 vertex normals

g pasted__pasted__pCube2
s off
f 121//91 122//91 123//91 124//91 
f 124//92 123//92 125//92 126//92 
f 126//93 125//93 127//93 128//93 
f 128//94 127//94 122//94 121//94 
f 122//95 127//95 125//95 123//95 
f 128//96 121//96 124//96 126//96 
# 6 polygons

#
# object pasted__pasted__pasted__pasted__pCube2
#

v  -38.7963 4.1179 -168.6044
v  -22.9339 4.1179 -168.6044
v  -22.9339 66.0463 -168.6044
v  -38.7963 66.0463 -168.6044
v  -22.9339 66.0463 -176.9066
v  -38.7963 66.0463 -176.9066
v  -22.9339 4.1179 -176.9066
v  -38.7963 4.1179 -176.9066
# 8 vertices

vn 0.0000 -0.0000 1.0000
vn 0.0000 1.0000 0.0000
vn 0.0000 0.0000 -1.0000
vn 0.0000 -1.0000 -0.0000
vn 1.0000 0.0000 -0.0000
vn -1.0000 0.0000 -0.0000
# 6 vertex normals

g pasted__pasted__pasted__pasted__pCube2
s off
f 129//97 130//97 131//97 132//97 
f 132//98 131//98 133//98 134//98 
f 134//99 133//99 135//99 136//99 
f 136//100 135//100 130//100 129//100 
f 130//101 135//101 133//101 131//101 
f 136//102 129//102 132//102 134//102 
# 6 polygons

